<mxfile host="drawio-plugin" modified="2024-01-15T20:51:31.599Z" agent="5.0 (Macintosh; Intel Mac OS X 10_15_7) AppleWebKit/537.36 (KHTML, like Gecko) Chrome/111.0.0.0 Safari/537.36" etag="mjENlQdrPbW0Gigp40zP" version="20.5.3" type="embed"><diagram name="Страница — 1" id="-XujD--9ZgsvbPbuMXY7"><mxGraphModel dx="950" dy="507" grid="1" gridSize="10" guides="1" tooltips="1" connect="1" arrows="1" fold="1" page="1" pageScale="1" pageWidth="827" pageHeight="1169" math="0" shadow="0"><root><mxCell id="0"/><mxCell id="1" parent="0"/><mxCell id="JfyUNmc7bQuv15rcDlZn-1" value="Session" style="swimlane;whiteSpace=wrap;html=1;" parent="1" vertex="1"><mxGeometry x="170" y="280" width="90" height="80" as="geometry"/></mxCell><mxCell id="JfyUNmc7bQuv15rcDlZn-5" value="Session" style="text;html=1;align=center;verticalAlign=middle;resizable=0;points=[];autosize=1;strokeColor=none;fillColor=none;" parent="JfyUNmc7bQuv15rcDlZn-1" vertex="1"><mxGeometry x="10" y="35" width="70" height="30" as="geometry"/></mxCell><mxCell id="JfyUNmc7bQuv15rcDlZn-2" value="Database" style="shape=cylinder3;whiteSpace=wrap;html=1;boundedLbl=1;backgroundOutline=1;size=15;" parent="1" vertex="1"><mxGeometry x="40" y="280" width="60" height="80" as="geometry"/></mxCell><mxCell id="JfyUNmc7bQuv15rcDlZn-9" value="Util information" style="swimlane;whiteSpace=wrap;html=1;" parent="1" vertex="1"><mxGeometry x="310" y="230" width="130" height="180" as="geometry"/></mxCell><mxCell id="JfyUNmc7bQuv15rcDlZn-10" value="Constant" style="text;html=1;align=center;verticalAlign=middle;resizable=0;points=[];autosize=1;strokeColor=none;fillColor=none;" parent="JfyUNmc7bQuv15rcDlZn-9" vertex="1"><mxGeometry x="30" y="25" width="70" height="30" as="geometry"/></mxCell><mxCell id="JfyUNmc7bQuv15rcDlZn-12" value="Encyption" style="text;html=1;align=center;verticalAlign=middle;resizable=0;points=[];autosize=1;strokeColor=none;fillColor=none;" parent="JfyUNmc7bQuv15rcDlZn-9" vertex="1"><mxGeometry x="25" y="55" width="80" height="30" as="geometry"/></mxCell><mxCell id="JfyUNmc7bQuv15rcDlZn-13" value="Path check" style="text;html=1;align=center;verticalAlign=middle;resizable=0;points=[];autosize=1;strokeColor=none;fillColor=none;" parent="JfyUNmc7bQuv15rcDlZn-9" vertex="1"><mxGeometry x="25" y="85" width="80" height="30" as="geometry"/></mxCell><mxCell id="JfyUNmc7bQuv15rcDlZn-14" value="Search value" style="text;html=1;align=center;verticalAlign=middle;resizable=0;points=[];autosize=1;strokeColor=none;fillColor=none;" parent="JfyUNmc7bQuv15rcDlZn-9" vertex="1"><mxGeometry x="20" y="115" width="90" height="30" as="geometry"/></mxCell><mxCell id="JfyUNmc7bQuv15rcDlZn-15" value="Validation" style="text;html=1;align=center;verticalAlign=middle;resizable=0;points=[];autosize=1;strokeColor=none;fillColor=none;" parent="JfyUNmc7bQuv15rcDlZn-9" vertex="1"><mxGeometry x="25" y="145" width="80" height="30" as="geometry"/></mxCell><mxCell id="JfyUNmc7bQuv15rcDlZn-23" value="Create directory" style="swimlane;whiteSpace=wrap;html=1;startSize=30;" parent="1" vertex="1"><mxGeometry x="540" y="270" width="110" height="100" as="geometry"/></mxCell><mxCell id="JfyUNmc7bQuv15rcDlZn-24" value="Creating &lt;br&gt;directory file" style="text;html=1;align=center;verticalAlign=middle;resizable=0;points=[];autosize=1;strokeColor=none;fillColor=none;" parent="JfyUNmc7bQuv15rcDlZn-23" vertex="1"><mxGeometry x="10" y="40" width="90" height="40" as="geometry"/></mxCell><mxCell id="8" style="edgeStyle=orthogonalEdgeStyle;rounded=0;orthogonalLoop=1;jettySize=auto;html=1;exitX=0.5;exitY=1;exitDx=0;exitDy=0;entryX=1;entryY=0.5;entryDx=0;entryDy=0;" edge="1" parent="1" source="JfyUNmc7bQuv15rcDlZn-25" target="JfyUNmc7bQuv15rcDlZn-23"><mxGeometry relative="1" as="geometry"><Array as="points"><mxPoint x="595" y="215"/><mxPoint x="700" y="215"/><mxPoint x="700" y="320"/></Array></mxGeometry></mxCell><mxCell id="JfyUNmc7bQuv15rcDlZn-25" value="Exception" style="swimlane;whiteSpace=wrap;html=1;" parent="1" vertex="1"><mxGeometry x="510" y="40" width="170" height="150" as="geometry"/></mxCell><mxCell id="JfyUNmc7bQuv15rcDlZn-26" value="Wrong login exception" style="text;html=1;align=center;verticalAlign=middle;resizable=0;points=[];autosize=1;strokeColor=none;fillColor=none;" parent="JfyUNmc7bQuv15rcDlZn-25" vertex="1"><mxGeometry x="15" y="25" width="140" height="30" as="geometry"/></mxCell><mxCell id="JfyUNmc7bQuv15rcDlZn-28" value="Wrong path exception" style="text;html=1;align=center;verticalAlign=middle;resizable=0;points=[];autosize=1;strokeColor=none;fillColor=none;" parent="JfyUNmc7bQuv15rcDlZn-25" vertex="1"><mxGeometry x="15" y="85" width="140" height="30" as="geometry"/></mxCell><mxCell id="JfyUNmc7bQuv15rcDlZn-29" value="Wrong session exception" style="text;html=1;align=center;verticalAlign=middle;resizable=0;points=[];autosize=1;strokeColor=none;fillColor=none;" parent="JfyUNmc7bQuv15rcDlZn-25" vertex="1"><mxGeometry x="5" y="115" width="160" height="30" as="geometry"/></mxCell><mxCell id="JfyUNmc7bQuv15rcDlZn-27" value="Wrong Password exception" style="text;html=1;align=center;verticalAlign=middle;resizable=0;points=[];autosize=1;strokeColor=none;fillColor=none;" parent="JfyUNmc7bQuv15rcDlZn-25" vertex="1"><mxGeometry y="55" width="170" height="30" as="geometry"/></mxCell><mxCell id="JfyUNmc7bQuv15rcDlZn-31" value="Parsing file" style="swimlane;whiteSpace=wrap;html=1;startSize=30;" parent="1" vertex="1"><mxGeometry x="540" y="400" width="110" height="100" as="geometry"/></mxCell><mxCell id="JfyUNmc7bQuv15rcDlZn-32" value="Create statistics" style="text;html=1;align=center;verticalAlign=middle;resizable=0;points=[];autosize=1;strokeColor=none;fillColor=none;" parent="JfyUNmc7bQuv15rcDlZn-31" vertex="1"><mxGeometry y="40" width="110" height="30" as="geometry"/></mxCell><mxCell id="2" value="Write file" style="text;html=1;align=center;verticalAlign=middle;resizable=0;points=[];autosize=1;strokeColor=none;fillColor=none;" parent="JfyUNmc7bQuv15rcDlZn-31" vertex="1"><mxGeometry x="20" y="70" width="70" height="30" as="geometry"/></mxCell><mxCell id="JfyUNmc7bQuv15rcDlZn-34" value="Logger" style="swimlane;whiteSpace=wrap;html=1;startSize=30;" parent="1" vertex="1"><mxGeometry x="100" y="70" width="110" height="100" as="geometry"/></mxCell><mxCell id="JfyUNmc7bQuv15rcDlZn-35" value="Logger" style="text;html=1;align=center;verticalAlign=middle;resizable=0;points=[];autosize=1;strokeColor=none;fillColor=none;" parent="JfyUNmc7bQuv15rcDlZn-34" vertex="1"><mxGeometry x="25" y="45" width="60" height="30" as="geometry"/></mxCell><mxCell id="JfyUNmc7bQuv15rcDlZn-36" value="" style="edgeStyle=orthogonalEdgeStyle;rounded=0;orthogonalLoop=1;jettySize=auto;html=1;exitX=0.5;exitY=1;exitDx=0;exitDy=0;entryX=0.5;entryY=0;entryDx=0;entryDy=0;" parent="1" source="JfyUNmc7bQuv15rcDlZn-25" target="JfyUNmc7bQuv15rcDlZn-9" edge="1"><mxGeometry relative="1" as="geometry"><mxPoint x="510" y="165" as="sourcePoint"/><mxPoint x="510" y="255" as="targetPoint"/></mxGeometry></mxCell><mxCell id="4" value="" style="endArrow=classic;html=1;rounded=0;exitX=1;exitY=0.5;exitDx=0;exitDy=0;entryX=0;entryY=0.5;entryDx=0;entryDy=0;" edge="1" parent="1" source="JfyUNmc7bQuv15rcDlZn-9" target="JfyUNmc7bQuv15rcDlZn-23"><mxGeometry width="50" height="50" relative="1" as="geometry"><mxPoint x="470" y="420" as="sourcePoint"/><mxPoint x="520" y="370" as="targetPoint"/></mxGeometry></mxCell><mxCell id="5" value="" style="endArrow=classic;html=1;rounded=0;exitX=0.5;exitY=1;exitDx=0;exitDy=0;entryX=0.5;entryY=0;entryDx=0;entryDy=0;" edge="1" parent="1" source="JfyUNmc7bQuv15rcDlZn-23" target="JfyUNmc7bQuv15rcDlZn-31"><mxGeometry width="50" height="50" relative="1" as="geometry"><mxPoint x="390" y="360" as="sourcePoint"/><mxPoint x="440" y="310" as="targetPoint"/></mxGeometry></mxCell><mxCell id="6" value="" style="endArrow=classic;html=1;rounded=0;exitX=1;exitY=0.5;exitDx=0;exitDy=0;entryX=0;entryY=0.5;entryDx=0;entryDy=0;" edge="1" parent="1" source="JfyUNmc7bQuv15rcDlZn-1" target="JfyUNmc7bQuv15rcDlZn-9"><mxGeometry width="50" height="50" relative="1" as="geometry"><mxPoint x="270" y="340" as="sourcePoint"/><mxPoint x="370" y="340" as="targetPoint"/></mxGeometry></mxCell><mxCell id="7" value="" style="endArrow=classic;html=1;rounded=0;exitX=1;exitY=0.5;exitDx=0;exitDy=0;entryX=0;entryY=0.5;entryDx=0;entryDy=0;exitPerimeter=0;" edge="1" parent="1" source="JfyUNmc7bQuv15rcDlZn-2" target="JfyUNmc7bQuv15rcDlZn-1"><mxGeometry width="50" height="50" relative="1" as="geometry"><mxPoint x="120" y="340" as="sourcePoint"/><mxPoint x="170" y="340" as="targetPoint"/></mxGeometry></mxCell><mxCell id="17" style="edgeStyle=orthogonalEdgeStyle;rounded=0;orthogonalLoop=1;jettySize=auto;html=1;entryX=1;entryY=0.75;entryDx=0;entryDy=0;" edge="1" parent="1" source="JfyUNmc7bQuv15rcDlZn-27" target="JfyUNmc7bQuv15rcDlZn-31"><mxGeometry relative="1" as="geometry"><mxPoint x="700" y="480" as="targetPoint"/><Array as="points"><mxPoint x="820" y="110"/><mxPoint x="820" y="480"/><mxPoint x="650" y="480"/></Array></mxGeometry></mxCell></root></mxGraphModel></diagram></mxfile>